<svg width="96" height="96" xmlns="http://www.w3.org/2000/svg" xmlns:xlink="http://www.w3.org/1999/xlink" xml:space="preserve" overflow="hidden"><defs><clipPath id="clip0"><rect x="592" y="312" width="96" height="96"></rect></clipPath></defs><g clip-path="url(#clip0)" transform="translate(-592 -312)"><path d="M677.886 338.458 669.923 331.293C669.004 330.426 667.778 329.961 666.516 330L652.116 330C651.573 330 651.13 330.432 651.116 330.975L651.098 331.675C651.055 332.762 651.44 333.823 652.171 334.629 652.925 335.441 653.984 335.902 655.092 335.9L656.486 335.9C656.501 335.9 656.504 335.908 656.493 335.917L655.022 337.23C652.671 336.374 650.036 337.082 648.431 339 647.338 338.199 645.998 337.809 644.646 337.9 643.304 337.98 642.028 338.511 641.026 339.407 638.734 337.4 635.311 337.394 633.012 339.394 630.717 337.398 627.301 337.398 625.006 339.394 623.816 338.327 622.246 337.786 620.651 337.894 619.039 337.987 617.539 338.748 616.513 339.994 615.039 338.956 613.175 338.637 611.44 339.126 609.551 339.641 608.043 341.063 607.419 342.919 605.35 343.155 603.539 344.416 602.6 346.275 601.754 347.998 601.785 350.022 602.685 351.718 601.492 352.957 600.881 354.645 601.006 356.361 601.139 358.081 602.021 359.655 603.418 360.667 602.785 362.332 602.894 364.188 603.718 365.767 604.743 367.744 606.781 368.989 609.008 369L609.008 386C609.008 386.266 609.113 386.52 609.301 386.708L611.301 388.708C611.489 388.895 611.743 389 612.008 389L618.008 389C618.56 389 619.008 388.552 619.008 388L619.008 386.662C619.008 385.336 618.482 384.065 617.545 383.127L617.011 382.593 617.011 371.919C618.314 372.146 619.656 371.935 620.826 371.319 621.734 372.214 622.9 372.8 624.16 372.995 625.425 373.179 626.715 372.944 627.833 372.325 628.74 373.216 629.904 373.8 631.16 373.995 632.425 374.179 633.715 373.944 634.834 373.325 635.741 374.216 636.904 374.8 638.161 374.995 638.437 375.038 638.716 375.059 638.996 375.059 639.684 375.055 640.366 374.931 641.011 374.692L641.011 386.006C641.011 386.271 641.116 386.525 641.303 386.713L643.303 388.713C643.491 388.901 643.745 389.006 644.011 389.006L650.011 389.006C650.563 389.006 651.011 388.558 651.011 388.006L651.011 386.662C651.011 385.336 650.485 384.065 649.548 383.127L649.014 382.593 649.014 374.655C649.698 374.987 650.431 375.203 651.185 375.297 651.507 375.341 651.831 375.364 652.156 375.365 652.443 375.364 652.73 375.343 653.014 375.301L653.014 383.001C653.014 383.266 653.119 383.52 653.306 383.708L654.134 384.537C654.695 385.099 655.011 385.861 655.011 386.655L655.011 387.001 653.062 387.001C652.516 386.99 652.056 387.404 652.007 387.947 651.977 388.499 652.4 388.97 652.951 389 652.97 389 652.989 389.001 653.007 389.001L656.007 389.001C656.559 389.001 657.007 388.553 657.007 388.001L657.007 386.66C657.007 385.336 656.481 384.065 655.545 383.128L655.01 382.592 655.01 374.7C655.152 374.638 655.294 374.579 655.437 374.513 656.926 373.822 658.079 372.568 658.643 371.026 660.411 371.158 662.143 370.479 663.35 369.18 664.573 367.862 665.13 366.058 664.863 364.28 666.131 363.571 667.092 362.416 667.557 361.039 668.031 359.689 668.005 358.213 667.485 356.88 670.146 354.971 670.755 351.267 668.846 348.606 668.715 348.423 668.573 348.247 668.421 348.08 668.8 347.313 669.276 346.496 669.575 346L675.917 346C678.014 346.025 679.788 344.455 680.017 342.371 680.142 340.574 678.262 338.794 677.886 338.458ZM647.009 372.577 647.009 383.007C647.009 383.272 647.114 383.526 647.301 383.713L648.129 384.543C648.69 385.105 649.006 385.867 649.006 386.662L649.006 387.006 644.421 387.006 643.009 385.593 643.009 373.018 642.985 372.855C642.949 372.473 642.676 372.154 642.304 372.06 641.984 371.957 641.633 372.022 641.372 372.234 640.547 372.874 639.499 373.155 638.464 373.014 637.406 372.852 636.455 372.276 635.82 371.414 635.495 370.967 634.87 370.869 634.423 371.194 634.411 371.202 634.399 371.212 634.387 371.221 633.56 371.871 632.505 372.157 631.463 372.014 630.405 371.852 629.454 371.276 628.819 370.414 628.494 369.967 627.869 369.869 627.422 370.194 627.41 370.202 627.398 370.212 627.386 370.221 626.559 370.87 625.504 371.157 624.462 371.014 623.402 370.857 622.449 370.281 621.818 369.414 621.494 368.967 620.868 368.867 620.421 369.192 620.411 369.199 620.402 369.206 620.392 369.214 619.242 370.086 617.71 370.262 616.392 369.675 615.881 369.465 615.297 369.708 615.086 370.218 615.086 370.219 615.086 370.219 615.086 370.219 615.034 370.343 615.009 370.476 615.011 370.61L615.011 383.01C615.011 383.275 615.116 383.529 615.303 383.716L616.131 384.546C616.692 385.108 617.008 385.87 617.008 386.665L617.008 387.009 612.42 387.009 611.008 385.595 611.008 368.017C611.018 367.871 611.001 367.724 610.956 367.585 610.781 367.061 610.215 366.778 609.691 366.953 609.466 366.996 609.237 367.012 609.008 367.002 607.523 366.987 606.169 366.151 605.49 364.831 604.834 363.566 604.862 362.056 605.564 360.816 605.85 360.343 605.698 359.729 605.225 359.443 605.21 359.434 605.194 359.424 605.178 359.416 603.955 358.803 603.133 357.603 603.005 356.24 602.899 354.871 603.496 353.542 604.589 352.712 605.038 352.391 605.143 351.767 604.821 351.317 604.811 351.302 604.8 351.288 604.789 351.274 603.883 350.093 603.727 348.5 604.389 347.166 605.081 345.797 606.474 344.924 608.008 344.9L608.208 344.9C608.693 344.904 609.109 344.556 609.192 344.079 609.467 342.624 610.548 341.453 611.976 341.063 613.413 340.643 614.965 341.077 615.976 342.181 616.352 342.586 616.984 342.61 617.389 342.234 617.471 342.159 617.54 342.069 617.592 341.971 618.602 340.063 620.967 339.336 622.874 340.345 623.393 340.62 623.844 341.008 624.192 341.481 624.376 341.751 624.686 341.909 625.013 341.9 625.339 341.898 625.643 341.737 625.828 341.469 627.169 339.714 629.68 339.378 631.435 340.719 631.717 340.935 631.969 341.187 632.185 341.469 632.535 341.923 633.186 342.008 633.641 341.658 633.712 341.604 633.775 341.54 633.83 341.469 635.172 339.714 637.682 339.379 639.437 340.72 639.719 340.935 639.971 341.187 640.186 341.469 640.501 341.923 641.124 342.036 641.578 341.721 641.666 341.66 641.744 341.585 641.808 341.499 642.507 340.548 643.596 339.961 644.775 339.899 645.949 339.82 647.092 340.292 647.869 341.175 648.167 341.499 648.64 341.593 649.039 341.408 649.24 341.309 649.404 341.147 649.505 340.947 650.531 339.061 652.872 338.334 654.786 339.308 655.148 339.483 655.58 339.42 655.876 339.148L658.676 336.648C658.889 336.458 659.011 336.187 659.011 335.902L659.011 334.902C659.011 334.35 658.563 333.902 658.011 333.902L655.151 333.902C654.673 333.91 654.206 333.752 653.831 333.455 653.389 333.097 653.121 332.568 653.094 332L666.516 332C667.265 331.966 667.997 332.234 668.547 332.744L676.547 339.944C677.19 340.524 678.059 341.644 678.023 342.176 677.901 343.239 676.986 344.031 675.917 344L669.017 344C668.674 344 668.354 344.176 668.171 344.466 667.474 345.572 666.849 346.721 666.3 347.908 666.127 348.312 666.238 348.781 666.573 349.065 668.233 350.482 668.43 352.976 667.013 354.637 666.663 355.047 666.232 355.381 665.748 355.619 665.261 355.879 665.076 356.484 665.336 356.972 665.336 356.973 665.337 356.975 665.338 356.976 665.931 358.005 666.055 359.239 665.677 360.365 665.316 361.473 664.469 362.354 663.377 362.76 662.877 362.93 662.601 363.464 662.75 363.97 663.166 365.318 662.835 366.786 661.879 367.824 660.921 368.836 659.494 369.256 658.141 368.924 657.875 368.862 657.595 368.911 657.366 369.06 657.138 369.209 656.98 369.446 656.93 369.714 656.668 371.02 655.804 372.125 654.6 372.693 653.646 373.236 652.54 373.454 651.451 373.314 650.43 373.268 649.476 372.79 648.827 372 648.545 371.616 648.034 371.478 647.597 371.67 647.284 371.813 647.068 372.107 647.026 372.448Z" fill="#000000" fill-rule="nonzero" fill-opacity="1"></path><path d="M623.009 382.592 623.009 375.065C623.02 374.519 622.606 374.058 622.062 374.01 621.51 373.981 621.04 374.404 621.01 374.956 621.009 374.974 621.009 374.992 621.009 375.01L621.009 383.01C621.009 383.275 621.115 383.53 621.302 383.717L622.127 384.544C622.69 385.107 623.006 385.869 623.006 386.665L623.006 387.01 621.062 387.01C620.516 386.999 620.056 387.413 620.007 387.956 619.977 388.508 620.4 388.979 620.951 389.008 620.97 389.009 620.989 389.01 621.007 389.01L624.007 389.01C624.559 389.01 625.007 388.562 625.007 388.01L625.007 386.66C625.007 385.336 624.481 384.065 623.545 383.128Z" fill="#000000" fill-rule="nonzero" fill-opacity="1"></path><path d="M668.567 335.436C669.15 336.02 669.147 336.969 668.56 337.556 667.973 338.143 667.023 338.147 666.44 337.563 665.857 336.98 665.86 336.031 666.447 335.443 667.034 334.856 667.984 334.853 668.567 335.436Z" fill="#000000" fill-rule="nonzero" fill-opacity="1"></path></g></svg>